# xmcd
#
# Track frame offsets:
#	150
#	18457
#	30275
#	46194
#	68480
#	78690
#	93652
#	105738
#	125633
#	139127
#	149051
#	161224
#	171993
#	187330
#	206061
#
# Disc length: 3001 seconds
#
# Revision: 0
# Processed by: cddbd v1.5.2PL0 Copyright (c) Steve Scherf et al.
# Submitted via: audiograbber 1.83.01
#
DISCID=e20bb70f
DTITLE=—борник - Las Baladas and Bellas CD3
DYEAR=1900
DGENRE=
TTITLE0=Billie Davis - NIGHTS IN WHITE SATIN
TTITLE1=Pat Boone - EL AMOR ES ALGO MARAVILLOSO
TTITLE2=Michel Legrand - LOS CASTILLOS DE TU MENTE
TTITLE3=Richard Anthony - EN ARANJUEZ CON TU AMOR
TTITLE4=Pat Boone - MONALISA
TTITLE5=Petula Clark - THIS IS MY SONG
TTITLE6=The Bachelors - RAMONA
TTITLE7=The Animals - LA CASA DEL SOL NACIENTE
TTITLE8=The Bachelors - THE SOUND OF SILENCE
TTITLE9=The Apaches - PERFIDIA
TTITLE10=Michel Legrand - VERANO DEL 42
TTITLE11=Paul Anka - LONELY BOY
TTITLE12=Frank Sinatra - LAURA
TTITLE13=Henry Salomon Y Orquesta - LA HIJA DE RYAN
TTITLE14=Francis Legrand - LOVE STORY
EXTD=
EXTT0=
EXTT1=
EXTT2=
EXTT3=
EXTT4=
EXTT5=
EXTT6=
EXTT7=
EXTT8=
EXTT9=
EXTT10=
EXTT11=
EXTT12=
EXTT13=
EXTT14=
PLAYORDER=
